# xmcd
#
# Track frame offsets:
#	182
#	19710
#	32472
#	49867
#	65995
#	91987
#	113655
#	157017
#	180037
#	197880
#	216320
#
# Disc length: 3105 seconds
#
# Revision: 0
# Processed by: cddbd v1.5.2PL0 Copyright (c) Steve Scherf et al.
# Submitted via: EasyCDDAExtractor 16.0.9.1
#
DISCID=910c1f0b
DTITLE=Gloria Gaynor - N-040 Gloria Gaynor Hit Collection
DYEAR=1992
DGENRE=Disco
TTITLE0=The power of love
TTITLE1=Every breath you take
TTITLE2=The eye of the tiger
TTITLE3=He's out of my life
TTITLE4=Careless whisper
TTITLE5=Don't you dare call it love
TTITLE6=I will survive/Never can say goodbye/Reach out(I'll be there)/I am wha
TTITLE6=t I am
TTITLE7=Broken wings
TTITLE8=The heat is on
TTITLE9=Every time you go away
TTITLE10=Suddenly
EXTD=
EXTT0=
EXTT1=
EXTT2=
EXTT3=
EXTT4=
EXTT5=
EXTT6=
EXTT7=
EXTT8=
EXTT9=
EXTT10=
PLAYORDER=
